<svg xmlns="http://www.w3.org/2000/svg" width="23" height="23" viewBox="0 0 23 23" fill="none">
  <path d="M19.5098 3.22401C19.4155 3.13015 19.2963 3.06516 19.1664 3.03669C19.0364 3.00822 18.901 3.01745 18.7761 3.0633L3.40358 8.6533C3.271 8.70358 3.15686 8.79301 3.07632 8.9097C2.99577 9.0264 2.95264 9.16483 2.95264 9.30663C2.95264 9.44842 2.99577 9.58685 3.07632 9.70355C3.15686 9.82024 3.271 9.90967 3.40358 9.95996L9.40584 12.3567L13.8359 7.91262L14.8212 8.89786L10.3701 13.3489L12.7738 19.3512C12.8256 19.4812 12.9152 19.5926 13.0311 19.6711C13.1469 19.7496 13.2837 19.7915 13.4237 19.7914C13.5649 19.7885 13.7019 19.7429 13.8166 19.6605C13.9314 19.5782 14.0185 19.463 14.0665 19.3302L19.6565 3.9577C19.7041 3.83407 19.7156 3.69946 19.6896 3.56956C19.6636 3.43965 19.6013 3.31981 19.5098 3.22401Z" fill="#002DE3"/>
</svg>